<?xml version="1.0" encoding="utf-8"?>
<!-- Generator: Adobe Illustrator 23.0.0, SVG Export Plug-In . SVG Version: 6.00 Build 0)  -->
<svg version="1.1" id="Livello_1" xmlns="http://www.w3.org/2000/svg" xmlns:xlink="http://www.w3.org/1999/xlink" x="0px" y="0px"
	 viewBox="0 0 700 149.96" style="enable-background:new 0 0 700 149.96;" xml:space="preserve">
<style type="text/css">
	.st0{fill:#FFFFFF;stroke:#1D1D1B;stroke-width:1.8184;stroke-miterlimit:10;}
	.st1{fill:#4C9CD3;stroke:#1D1D1B;stroke-width:1.5535;stroke-miterlimit:10;}
	.st2{fill:#1D1D1B;}
	.st3{fill:#B2B2B2;}
	.st4{fill:#009640;}
</style>
<g>
	<path class="st0" d="M265.03,125.13H112.61c-3.01,0-5.46-2.44-5.46-5.46V24.28c0-3.01,2.44-5.46,5.46-5.46h152.42
		c3.01,0,5.46,2.44,5.46,5.46v95.39C270.48,122.68,268.04,125.13,265.03,125.13z"/>
	<path class="st1" d="M270.48,38.08H107.15v-13.8c0-3.01,2.44-5.46,5.46-5.46h152.42c3.01,0,5.46,2.44,5.46,5.46V38.08z"/>
	<circle class="st2" cx="258.99" cy="28.45" r="3.34"/>
	<circle class="st2" cx="247.01" cy="28.45" r="3.34"/>
	<circle class="st2" cx="234.67" cy="28.45" r="3.34"/>
</g>
<g>
	<path class="st3" d="M545.49,78.32c-22.53,0-41.4-6.59-46.58-15.54c-0.91,1.58-1.44,3.21-1.44,4.89v14.61
		c0,11.3,21.5,20.43,48.02,20.43c26.54,0,48.04-9.13,48.04-20.43V67.67c0-1.68-0.53-3.31-1.47-4.89
		C586.91,71.73,568.04,78.32,545.49,78.32L545.49,78.32z M545.49,78.32"/>
	<path class="st3" d="M545.49,108.52c-22.53,0-41.4-6.64-46.58-15.54c-0.91,1.56-1.44,3.19-1.44,4.87v14.63
		c0,11.27,21.5,20.43,48.02,20.43c26.54,0,48.04-9.16,48.04-20.43V97.85c0-1.68-0.53-3.31-1.47-4.87
		C586.91,101.87,568.04,108.52,545.49,108.52L545.49,108.52z M545.49,108.52"/>
	<path class="st3" d="M592.2,33.58c-0.93,8.25-21.46,14.86-46.71,14.86c-25.24,0-45.78-6.61-46.69-14.86
		c-0.84,1.49-1.33,3.05-1.33,4.66v14.61c0,11.3,21.5,20.43,48.02,20.43c26.54,0,48.04-9.13,48.04-20.43V38.24
		C593.53,36.64,593.04,35.08,592.2,33.58L592.2,33.58z M592.2,33.58"/>
	<path class="st3" d="M592.29,28.37c0,8.53-20.94,15.47-46.8,15.47c-25.84,0-46.78-6.94-46.78-15.47c0-8.55,20.95-15.47,46.78-15.47
		C571.35,12.89,592.29,19.82,592.29,28.37L592.29,28.37z M592.29,28.37"/>
</g>
<polygon class="st4" points="461.16,73.28 411.1,44.38 411.1,55.86 313.84,55.86 313.84,90.71 411.1,90.71 411.1,102.19 "/>
<g>
	<path d="M168.11,65.51l-0.63,5c-0.08,0.47-0.23,0.86-0.47,1.17s-0.63,0.63-1.17,0.86l-18.69,8.91c-0.55,0.31-1.09,0.55-1.72,0.7
		c-0.63,0.16-1.25,0.39-1.95,0.55c0.63,0.16,1.25,0.23,1.8,0.47c0.55,0.23,1.09,0.55,1.56,0.78l16.5,8.83
		c0.47,0.23,0.78,0.55,0.94,0.86s0.31,0.78,0.23,1.17l-0.63,5l-28.3-15.71l0.31-2.89L168.11,65.51z"/>
	<path d="M173.98,111.79c-0.78,0.47-1.49,0.7-2.27,0.7h-2.97l30.65-58.56c0.47-0.86,1.02-1.41,1.72-1.88
		c0.7-0.47,1.41-0.63,2.27-0.63h2.97l-30.49,58.32C175.39,110.7,174.76,111.32,173.98,111.79z"/>
	<path d="M208.07,94.83c0.08-0.39,0.23-0.86,0.47-1.17s0.7-0.63,1.25-0.86l18.61-8.91c0.55-0.23,1.17-0.47,1.72-0.7
		c0.55-0.23,1.17-0.31,1.88-0.47c-0.63-0.16-1.25-0.39-1.8-0.55c-0.55-0.16-1.02-0.39-1.49-0.7l-16.5-8.91
		c-0.47-0.23-0.78-0.55-0.94-0.86s-0.23-0.7-0.16-1.17l0.55-5l28.3,15.71l-0.31,2.89l-32.13,15.71L208.07,94.83z"/>
</g>
<g>
</g>
<g>
</g>
<g>
</g>
<g>
</g>
<g>
</g>
<g>
</g>
</svg>
